<?xml version="1.0" encoding="iso-8859-1"?>
<!-- Generator: Adobe Illustrator 18.0.0, SVG Export Plug-In . SVG Version: 6.00 Build 0)  -->
<!DOCTYPE svg PUBLIC "-//W3C//DTD SVG 1.1//EN" "http://www.w3.org/Graphics/SVG/1.1/DTD/svg11.dtd">
<svg version="1.1" id="Capa_1" xmlns="http://www.w3.org/2000/svg" xmlns:xlink="http://www.w3.org/1999/xlink" x="0px" y="0px"
	 viewBox="0 0 154.616 154.616" style="enable-background:new 0 0 154.616 154.616;" xml:space="preserve">
<g>
	<g>
		<g>
			
				<rect x="24.633" y="24.95" transform="matrix(0.8525 -0.5228 0.5228 0.8525 -15.6373 49.6458)" style="fill:#FAA522;" width="111.019" height="55.157"/>
			<path style="fill:#E32A27;" d="M127.813,34.211l-9.729-15.865c-5.349,3.28-12.577,1.222-16.146-4.597L35.697,54.371
				c3.568,5.819,2.125,13.195-3.225,16.476l9.729,15.864c5.349-3.28,12.577-1.222,16.146,4.597l66.24-40.622
				C121.02,44.867,122.464,37.491,127.813,34.211z"/>
			
				<rect x="76.047" y="10.441" transform="matrix(-0.8525 0.5228 -0.5228 -0.8525 212.1669 16.1661)" style="fill:#F58225;" width="55.51" height="55.157"/>
			<path style="fill:#C0221F;" d="M101.938,13.75L68.817,34.061l22.651,36.937l33.121-20.312
				c-3.569-5.819-2.126-13.195,3.224-16.476l-9.729-15.864C112.735,21.626,105.507,19.568,101.938,13.75z"/>
		</g>
		<circle style="fill:#FFFFFF;" cx="80.142" cy="52.529" r="16.85"/>
		<path style="fill:#F9CC79;" d="M94.507,43.72c-4.865-7.933-15.239-10.42-23.173-5.555l17.617,28.728
			C96.884,62.028,99.372,51.653,94.507,43.72z"/>
	</g>
	<g>
		<g>
			
				<rect x="21.128" y="39.59" transform="matrix(0.9414 -0.3374 0.3374 0.9414 -18.1667 29.7913)" style="fill:#FAA522;" width="111.019" height="55.157"/>
			<path style="fill:#E32A27;" d="M127.047,58.988l-6.277-17.519c-5.907,2.117-12.563-1.376-14.865-7.802L32.755,59.881
				c2.303,6.425-0.619,13.351-6.525,15.467l6.277,17.519c5.907-2.117,12.563,1.376,14.865,7.802l73.149-26.213
				C118.218,68.03,121.14,61.105,127.047,58.988z"/>
			
				<rect x="75.01" y="30.227" transform="matrix(-0.9414 0.3374 -0.3374 -0.9414 219.0072 77.5538)" style="fill:#F58225;" width="55.51" height="55.157"/>
			<path style="fill:#C0221F;" d="M105.904,33.667L69.329,46.774l14.617,40.789l36.575-13.107
				c-2.303-6.426,0.618-13.351,6.525-15.468l-6.277-17.519C114.862,43.586,108.207,40.093,105.904,33.667z"/>
		</g>
		<circle style="fill:#FFFFFF;" cx="76.637" cy="67.169" r="16.85"/>
		<path style="fill:#F9CC79;" d="M92.5,61.484c-3.14-8.76-12.786-13.317-21.546-10.178L82.322,83.03
			C91.083,79.891,95.639,70.245,92.5,61.484z"/>
	</g>
	<path style="fill:#4C70B7;" d="M131.515,75.436H22.781c-5.548,0-10.046,4.498-10.046,10.046v59.088
		c0,5.548,4.498,10.046,10.046,10.046h108.734c5.548,0,10.046-4.498,10.046-10.046V85.482
		C141.561,79.934,137.063,75.436,131.515,75.436z"/>
	<path style="fill:#3A568E;" d="M17.355,77.048c-2.773,1.788-4.62,4.889-4.62,8.434v59.088c0,5.548,4.498,10.046,10.046,10.046
		h108.734c3.499,0,6.574-1.794,8.373-4.507C76.631,135.067,24.171,86.78,17.355,77.048z"/>
	<path style="fill:#FFFFFF;" d="M132,87.899h-30.194c-1.897,0-3.436,1.537-3.436,3.434c0,1.896,1.538,3.434,3.436,3.434H132
		c1.896,0,3.435-1.538,3.435-3.434C135.434,89.436,133.896,87.899,132,87.899z"/>
</g>
<g>
</g>
<g>
</g>
<g>
</g>
<g>
</g>
<g>
</g>
<g>
</g>
<g>
</g>
<g>
</g>
<g>
</g>
<g>
</g>
<g>
</g>
<g>
</g>
<g>
</g>
<g>
</g>
<g>
</g>
</svg>
